# File created by Blade
# Date/Time:  Wed Apr 08 17:24:25 2015
#---------------------------------------------------------
:version 1.10
:name HOM
:units
  mass 1.0
  length 1.000000
  angle deg
:documentation
     Acclaim Skeleton File
:root
   axis xyz
   order TX TY TZ RX RY RZ
   position 0.000000 0.000000 0.000000
   orientation 0 0 0
:bonedata
   begin
      id 1
      name Spine_dum
      direction 0.000000 1.000000 0.000000
      length 5.893853
      axis 0.0 0.0 0.0 xyz
   end
   begin
      id 2
      name LeftUpLeg_dum
      direction 1.000000 0.000000 0.000000
      length 3.697939
      axis 0.0 0.0 0.0 xyz
   end
   begin
      id 3
      name RightUpLeg_dum
      direction -1.000000 0.000000 0.000000
      length 3.697939
      axis 0.0 0.0 0.0 xyz
   end
   begin
      id 4
      name Spine
      direction 0.000000 1.000000 0.000000
      length 0.000000
      axis 0.0 0.0 0.0 xyz
      dof rx ry rz
   end
   begin
      id 5
      name Spine_dum1
      direction 0.000000 1.000000 0.000000
      length 16.447146
      axis 0.0 0.0 0.0 xyz
   end
   begin
      id 6
      name Spine_dum2
      direction 0.000000 1.000000 0.000000
      length 10.900383
      axis 0.0 0.0 0.0 xyz
   end
   begin
      id 7
      name Spine_dum3
      direction 0.000000 1.000000 0.000000
      length 10.900383
      axis 0.0 0.0 0.0 xyz
   end
   begin
      id 8
      name Head
      direction 0.000000 1.000000 0.000000
      length 4.527550
      axis 0.0 0.0 0.0 xyz
      dof rx ry rz
   end
   begin
      id 9
      name LeftShoulder
      direction 1.000000 0.000000 0.000000
      length 8.219464
      axis 0.0 0.0 -90.0 xyz
      dof rx ry rz
   end
   begin
      id 10
      name LeftArm
      direction 1.000000 0.000000 0.000000
      length 11.094937
      axis 0.0 0.0 -90.0 xyz
      dof rx ry rz
   end
   begin
      id 11
      name LeftForeArm
      direction 1.000000 0.000000 0.000000
      length 9.103875
      axis 0.0 0.0 -90.0 xyz
      dof ry rz rx
   end
   begin
      id 12
      name LeftHand
      direction 0.000000 0.000000 0.000000
      length 0.000000
      axis 0.0 0.0 -90.0 xyz
      dof rx ry rz
   end
   begin
      id 13
      name LeftHand_dum1
      direction 0.000000 0.000000 0.000000
      length 0.000000
      axis 0.0 0.0 -90.0 xyz
   end
   begin
      id 14
      name LeftHand_dum2
      direction 1.000000 0.000000 0.000000
      length 3.937000
      axis 0.0 0.0 -90.0 xyz
   end
   begin
      id 15
      name LeftHandThumb1
      direction 0.000000 0.000000 1.000000
      length 3.937000
      axis 0.0 0.0 -90.0 xyz
      dof rx rz ry
   end
   begin
      id 16
      name RightShoulder
      direction -1.000000 0.000000 0.000000
      length 8.219464
      axis 0.0 0.0 90.0 xyz
      dof rx ry rz
   end
   begin
      id 17
      name RightArm
      direction -1.000000 0.000000 0.000000
      length 11.094937
      axis 0.0 0.0 90.0 xyz
      dof rx ry rz
   end
   begin
      id 18
      name RightForeArm
      direction -1.000000 0.000000 0.000000
      length 9.103875
      axis 0.0 0.0 90.0 xyz
      dof ry rz rx
   end
   begin
      id 19
      name RightHand
      direction 0.000000 0.000000 0.000000
      length 0.000000
      axis 0.0 0.0 90.0 xyz
      dof rx ry rz
   end
   begin
      id 20
      name RightHand_dum1
      direction 0.000000 0.000000 0.000000
      length 0.000000
      axis 0.0 0.0 90.0 xyz
   end
   begin
      id 21
      name RightHand_dum2
      direction -1.000000 0.000000 0.000000
      length 3.937000
      axis 0.0 0.0 90.0 xyz
   end
   begin
      id 22
      name RightHandThumb1
      direction 0.000000 0.000000 1.000000
      length 3.937000
      axis 0.0 0.0 90.0 xyz
      dof rx rz ry
   end
   begin
      id 23
      name LeftUpLeg
      direction 0.000000 -1.000000 0.000000
      length 16.181467
      axis 0.0 0.0 0.0 xyz
      dof rx ry rz
   end
   begin
      id 24
      name LeftLeg
      direction 0.000000 -1.000000 0.000000
      length 16.501392
      axis 0.0 0.0 0.0 xyz
      dof rx ry rz
   end
   begin
      id 25
      name LeftFoot
      direction 0.000000 -0.258819 0.965926
      length 6.408245
      axis 15.0 0.0 0.0 xyz
      dof rx ry rz
   end
   begin
      id 26
      name LeftToeBase
      direction 0.000000 0.000000 1.000000
      length 2.952750
      axis 0.0 0.0 0.0 xyz
      dof rx ry rz
   end
   begin
      id 27
      name RightUpLeg
      direction 0.000000 -1.000000 0.000000
      length 16.181467
      axis 0.0 0.0 0.0 xyz
      dof rx ry rz
   end
   begin
      id 28
      name RightLeg
      direction 0.000000 -1.000000 0.000000
      length 16.501392
      axis 0.0 0.0 0.0 xyz
      dof rx ry rz
   end
   begin
      id 29
      name RightFoot
      direction 0.000000 -0.258819 0.965926
      length 6.408245
      axis 15.0 0.0 0.0 xyz
      dof rx ry rz
   end
   begin
      id 30
      name RightToeBase
      direction 0.000000 0.000000 1.000000
      length 2.952750
      axis 0.0 0.0 0.0 xyz
      dof rx ry rz
   end
:hierarchy
   begin
      root Spine_dum LeftUpLeg_dum RightUpLeg_dum
      Spine_dum Spine
      LeftUpLeg_dum LeftUpLeg
      RightUpLeg_dum RightUpLeg
      Spine Spine_dum1 Spine_dum2 Spine_dum3
      Spine_dum1 Head
      Spine_dum2 LeftShoulder
      Spine_dum3 RightShoulder
      LeftShoulder LeftArm
      LeftArm LeftForeArm
      LeftForeArm LeftHand
      LeftHand LeftHand_dum1 LeftHand_dum2
      LeftHand_dum1 LeftHandThumb1
      RightShoulder RightArm
      RightArm RightForeArm
      RightForeArm RightHand
      RightHand RightHand_dum1 RightHand_dum2
      RightHand_dum1 RightHandThumb1
      LeftUpLeg LeftLeg
      LeftLeg LeftFoot
      LeftFoot LeftToeBase
      RightUpLeg RightLeg
      RightLeg RightFoot
      RightFoot RightToeBase
   end

# File created by Blade
# Date/Time:  Wed Apr 08 17:24:36 2015
# Frame Rate: 120.000 fps
#------------------------------------------------------
:FULLY-SPECIFIED
:DEGREES
685
root 7.362832 37.473557 2.823910 72.574264 -67.712450 -99.016082
Spine 39.186028 -0.003006 17.583453
Head -9.107839 14.764460 5.150685
LeftShoulder -2.250889 14.604016 19.064273
LeftArm 24.113423 30.094584 -75.477898
LeftForeArm 11.008549 -0.000000 31.601326
LeftHand -14.040312 -0.000000 -7.669404
LeftHandThumb1 -26.253704 0.000000 33.147579
RightShoulder -24.039901 -44.536538 12.410480
RightArm 57.153877 -5.947032 55.639991
RightForeArm 55.514354 -0.000000 36.097388
RightHand -0.350760 -0.000000 22.881283
RightHandThumb1 -24.326973 -0.000000 -32.862282
LeftUpLeg 26.916667 21.889478 29.758591
LeftLeg 16.763038 -0.000000 -0.000000
LeftFoot -15.388285 9.679541 -2.802497
LeftToeBase -4.469748 -0.000000 0.000000
RightUpLeg -71.447384 -19.456910 -11.266207
RightLeg 151.636707 -0.000000 -0.000000
RightFoot 15.317046 3.411532 6.971742
RightToeBase -8.287419 -0.000000 0.000000
686
root 7.378409 37.460696 2.819672 73.439777 -67.602531 -99.601699
Spine 38.886955 -0.008744 17.613689
Head -8.976844 14.905796 5.123944
LeftShoulder -2.346535 14.692218 19.024212
LeftArm 23.954320 30.126239 -75.529099
LeftForeArm 11.007570 -0.000000 31.613235
LeftHand -14.006518 -0.000000 -7.781214
LeftHandThumb1 -26.253704 0.000000 33.147579
RightShoulder -24.056789 -44.518201 12.404063
RightArm 57.044016 -6.038390 55.686346
RightForeArm 55.434715 -0.000000 36.214263
RightHand -0.275963 0.000000 22.974780
RightHandThumb1 -24.326973 -0.000000 -32.862282
LeftUpLeg 26.808916 21.587460 29.557833
LeftLeg 16.406053 -0.000000 -0.000000
LeftFoot -15.529417 9.656058 -2.852849
LeftToeBase -4.594806 -0.000000 0.000000
RightUpLeg -71.804649 -19.678156 -11.055086
RightLeg 151.715841 -0.000000 -0.000000
RightFoot 15.580311 3.443890 7.177274
RightToeBase -8.346558 -0.000000 0.000000
687
root 7.395311 37.442447 2.815534 74.329870 -67.467422 -100.223957
Spine 38.602794 -0.014234 17.682891
Head -8.899264 15.072174 5.087500
LeftShoulder -2.406521 14.765043 18.986363
LeftArm 23.732720 30.125756 -75.622083
LeftForeArm 11.014508 -0.000000 31.669110
LeftHand -13.962749 -0.000000 -7.880710
LeftHandThumb1 -26.253704 0.000000 33.147579
RightShoulder -24.139962 -44.499342 12.415443
RightArm 56.972039 -6.140146 55.737916
RightForeArm 55.461844 0.000000 36.366006
RightHand -0.253916 -0.000000 22.868359
RightHandThumb1 -24.326973 -0.000000 -32.862282
LeftUpLeg 26.759513 21.416228 29.447050
LeftLeg 16.014146 -0.000000 -0.000000
LeftFoot -15.739263 9.639207 -2.968922
LeftToeBase -4.591241 -0.000000 0.000000
RightUpLeg -72.165135 -19.877277 -10.800939
RightLeg 151.790529 -0.000000 -0.000000
RightFoot 15.796122 3.443838 7.411557
RightToeBase -8.319333 -0.000000 0.000000
688
root 7.411086 37.418785 2.814432 75.141481 -67.359740 -100.769645
Spine 38.319557 -0.067589 17.699686
Head -8.835204 15.241052 5.027986
LeftShoulder -2.521502 14.849479 18.937175
LeftArm 23.526770 30.123281 -75.710428
LeftForeArm 11.104303 -0.000000 31.684812
LeftHand -13.862230 0.000000 -8.000056
LeftHandThumb1 -26.253704 0.000000 33.147579
RightShoulder -24.128824 -44.490243 12.335201
RightArm 56.832367 -6.216800 55.923010
RightForeArm 55.403281 -0.000000 36.586750
RightHand -0.266933 0.000000 22.739555
RightHandThumb1 -24.326973 -0.000000 -32.862282
LeftUpLeg 26.748322 21.428363 29.358315
LeftLeg 15.586090 -0.000000 -0.000000
LeftFoot -15.940830 9.768325 -2.996673
LeftToeBase -4.671155 -0.000000 0.000000
RightUpLeg -72.536814 -20.106637 -10.590254
RightLeg 151.859604 -0.000000 -0.000000
RightFoot 16.018351 3.453442 7.578413
RightToeBase -8.223936 -0.000000 0.000000
